ffmpeg version 3.4.8-0ubuntu0.2 Copyright (c) 2000-2020 the FFmpeg developers
  built with gcc 7 (Ubuntu 7.5.0-3ubuntu1~18.04)
  configuration: --prefix=/usr --extra-version=0ubuntu0.2 --toolchain=hardened --libdir=/usr/lib/x86_64-linux-gnu --incdir=/usr/include/x86_64-linux-gnu --enable-gpl --disable-stripping --enable-avresample --enable-avisynth --enable-gnutls --enable-ladspa --enable-libass --enable-libbluray --enable-libbs2b --enable-libcaca --enable-libcdio --enable-libflite --enable-libfontconfig --enable-libfreetype --enable-libfribidi --enable-libgme --enable-libgsm --enable-libmp3lame --enable-libmysofa --enable-libopenjpeg --enable-libopenmpt --enable-libopus --enable-libpulse --enable-librubberband --enable-librsvg --enable-libshine --enable-libsnappy --enable-libsoxr --enable-libspeex --enable-libssh --enable-libtheora --enable-libtwolame --enable-libvorbis --enable-libvpx --enable-libwavpack --enable-libwebp --enable-libx265 --enable-libxml2 --enable-libxvid --enable-libzmq --enable-libzvbi --enable-omx --enable-openal --enable-opengl --enable-sdl2 --enable-libdc1394 --enable-libdrm --enable-libiec61883 --enable-chromaprint --enable-frei0r --enable-libopencv --enable-libx264 --enable-shared
  libavutil      55. 78.100 / 55. 78.100
  libavcodec     57.107.100 / 57.107.100
  libavformat    57. 83.100 / 57. 83.100
  libavdevice    57. 10.100 / 57. 10.100
  libavfilter     6.107.100 /  6.107.100
  libavresample   3.  7.  0 /  3.  7.  0
  libswscale      4.  8.100 /  4.  8.100
  libswresample   2.  9.100 /  2.  9.100
  libpostproc    54.  7.100 / 54.  7.100
[rawvideo @ 0x55e16f302a20] Estimating duration from bitrate, this may be inaccurate
Input #0, rawvideo, from '../../SVC-Encoder-20220109T061506Z-001/SVC-Encoder/Dataset/RollerCoaster/ERP_8x8/tile_yuv/Tile_42_480x240.yuv':
  Duration: 00:00:10.00, start: 0.000000, bitrate: 41472 kb/s
    Stream #0:0: Video: rawvideo (I420 / 0x30323449), yuv420p, 480x240, 41472 kb/s, 30 tbr, 30 tbn, 30 tbc
Stream mapping:
  Stream #0:0 -> #0:0 (rawvideo (native) -> h264 (libx264))
Press [q] to stop, [?] for help
[libx264 @ 0x55e16f30fc60] using cpu capabilities: MMX2 SSE2Fast LZCNT SSSE3 SSE4.2 AVX
[libx264 @ 0x55e16f30fc60] profile High, level 2.1
Output #0, rawvideo, to 'RollerCoaster_Tile_42_480x240_x264_QP_32.h264':
  Metadata:
    encoder         : Lavf57.83.100
    Stream #0:0: Video: h264 (libx264), yuv420p, 480x240, q=-1--1, 30 fps, 30 tbn, 30 tbc
    Metadata:
      encoder         : Lavc57.107.100 libx264
    Side data:
      cpb: bitrate max/min/avg: 0/0/0 buffer size: 0 vbv_delay: -1
frame=  156 fps=0.0 q=38.0 PSNR=Y:nan U:nan V:nan *:nan size=      64kB time=00:00:03.76 bitrate= 139.8kbits/s speed=7.45x    frame=  300 fps=277 q=38.0 LPSNR=Y:inf U:inf V:inf *:inf size=     160kB time=00:00:09.93 bitrate= 131.7kbits/s speed=9.16x    
video:160kB audio:0kB subtitle:0kB other streams:0kB global headers:0kB muxing overhead: 0.000000%
[libx264 @ 0x55e16f30fc60] frame I:2     Avg QP:29.90  size:  9192  PSNR Mean Y:36.44 U:44.10 V:45.95 Avg:37.91 Global:37.87
[libx264 @ 0x55e16f30fc60] frame P:76    Avg QP:31.75  size:  1440  PSNR Mean Y:34.65 U:44.27 V:46.03 Avg:36.21 Global:36.18
[libx264 @ 0x55e16f30fc60] frame B:222   Avg QP:37.44  size:   161  PSNR Mean Y:34.51 U:44.20 V:45.96 Avg:36.08 Global:36.06
[libx264 @ 0x55e16f30fc60] consecutive B-frames:  1.0%  0.7%  1.0% 97.3%
[libx264 @ 0x55e16f30fc60] mb I  I16..4:  4.3% 80.3% 15.3%
[libx264 @ 0x55e16f30fc60] mb P  I16..4:  0.0%  0.0%  0.0%  P16..4: 50.4% 16.2%  5.5%  0.0%  0.0%    skip:27.8%
[libx264 @ 0x55e16f30fc60] mb B  I16..4:  0.0%  0.0%  0.0%  B16..8: 28.5%  0.4%  0.0%  direct: 0.0%  skip:71.1%  L0:26.5% L1:72.6% BI: 0.9%
[libx264 @ 0x55e16f30fc60] 8x8 transform intra:79.8% inter:68.7%
[libx264 @ 0x55e16f30fc60] coded y,uvDC,uvAC intra: 93.5% 74.5% 11.8% inter: 6.0% 2.7% 0.0%
[libx264 @ 0x55e16f30fc60] i16 v,h,dc,p:  2%  6% 51% 40%
[libx264 @ 0x55e16f30fc60] i8 v,h,dc,ddl,ddr,vr,hd,vl,hu:  6% 11% 13% 16%  6%  4%  9% 28% 10%
[libx264 @ 0x55e16f30fc60] i4 v,h,dc,ddl,ddr,vr,hd,vl,hu:  6%  9% 10% 23%  5%  2%  7% 32%  5%
[libx264 @ 0x55e16f30fc60] i8c dc,h,v,p: 57% 15% 17% 11%
[libx264 @ 0x55e16f30fc60] Weighted P-Frames: Y:0.0% UV:0.0%
[libx264 @ 0x55e16f30fc60] ref P L0: 65.7% 19.2% 13.6%  1.5%
[libx264 @ 0x55e16f30fc60] ref B L0: 95.2%  4.4%  0.4%
[libx264 @ 0x55e16f30fc60] ref B L1: 94.3%  5.7%
[libx264 @ 0x55e16f30fc60] PSNR Mean Y:34.560 U:44.214 V:45.975 Avg:36.128 Global:36.102 kb/s:130.83
